<?xml version="1.0" encoding="iso-8859-1"?>
<!-- Uploaded to: SVG Repo, www.svgrepo.com, Generator: SVG Repo Mixer Tools -->
<svg height="800px" width="800px" version="1.1" id="Layer_1" xmlns="http://www.w3.org/2000/svg" xmlns:xlink="http://www.w3.org/1999/xlink" 
	 viewBox="0 0 504.8 504.8" xml:space="preserve">
<path style="fill:#E8E3E3;" d="M411,502H39c-17.6,0-32.4-12.4-32.4-29.6V442h372.8L411,502z"/>
<path style="fill:#F4EFEF;" d="M442.2,470.8c0,17.6-14.4,32.4-31.6,32.4c-17.6,0-31.6-13.2-31.6-30.8V442H67V36.8
	C67,19.2,85.4,6,102.6,6h372l-32,30.8V470"/>
<path style="fill:#E8E3E3;" d="M442.6,36.8c0-17.6,12.4-31.6,30-31.6s30,14,30,31.6V66h-60V36.8z"/>
<path d="M64.6,446c-2.4,0-4-1.6-4-4V36c0-19.2,18-36,38.4-36h371.6c2.4,0,4,1.6,4,4s-1.6,4-4,4H99C83,8,68.6,21.2,68.6,36v406
	C68.6,444.4,67,446,64.6,446z"/>
<path d="M411,504.8c-3.6,0-7.2-0.4-10.4-1.2c-0.8,0.4-1.2,0.8-2,0.8H37c-21.2,0-36.4-13.6-36.4-32.4v-27.6c0-2.4,1.6-4,4-4h372
	c2.4,0,4,1.6,4,4V472c0,15.6,15.6,24.8,30.4,24.8c16.4,0,27.6-10,27.6-24.4l-0.8-434.8c0-20.8,14.8-37.2,33.2-37.2
	c18.8,0,33.2,15.6,33.2,36.4v29.6c0,2.4-1.6,4-4,4s-4-1.6-4-4V36.8c0-16.4-10.8-28.4-25.2-28.4c-16,0-25.2,14.8-25.2,29.2l0.8,434.8
	C446.6,490.8,431.8,504.8,411,504.8z M8.6,448v23.6C8.6,488.4,23.4,496,37,496h348c-7.2-5.6-12.4-14-12.4-24.4V448H8.6z"/>
<path d="M498.6,72h-56c-2.4,0-4-1.6-4-4s1.6-4,4-4h56c2.4,0,4,1.6,4,4S501,72,498.6,72z"/>
</svg>